<?xml version="1.0" encoding="utf-8" standalone="no"?>
<!DOCTYPE svg PUBLIC "-//W3C//DTD SVG 1.1//EN"
  "http://www.w3.org/Graphics/SVG/1.1/DTD/svg11.dtd">
<svg xmlns:xlink="http://www.w3.org/1999/xlink" width="606.125781pt" height="393.158906pt" viewBox="0 0 606.125781 393.158906" xmlns="http://www.w3.org/2000/svg" version="1.1">
 <metadata>
  <rdf:RDF xmlns:dc="http://purl.org/dc/elements/1.1/" xmlns:cc="http://creativecommons.org/ns#" xmlns:rdf="http://www.w3.org/1999/02/22-rdf-syntax-ns#">
   <cc:Work>
    <dc:type rdf:resource="http://purl.org/dc/dcmitype/StillImage"/>
    <dc:date>2026-06-27T20:29:05.584610</dc:date>
    <dc:format>image/svg+xml</dc:format>
    <dc:creator>
     <cc:Agent>
      <dc:title>Matplotlib v3.11.0, https://matplotlib.org/</dc:title>
     </cc:Agent>
    </dc:creator>
   </cc:Work>
  </rdf:RDF>
 </metadata>
 <defs>
  <style type="text/css">*{stroke-linejoin: round; stroke-linecap: butt}</style>
 </defs>
 <g id="figure_1">
  <g id="patch_1">
   <path d="M 0 393.158906 
L 606.125781 393.158906 
L 606.125781 0 
L 0 0 
z
" style="fill: #ffffff"/>
  </g>
  <g id="axes_1">
   <g id="patch_2">
    <path d="M 40.925781 354.958125 
L 598.925781 354.958125 
L 598.925781 22.318125 
L 40.925781 22.318125 
z
" style="fill: #ffffff"/>
   </g>
   <g id="matplotlib.axis_1">
    <g id="xtick_1">
     <g id="line2d_1">
      <path d="M 62.062145 354.958125 
L 62.062145 22.318125 
" clip-path="url(#pc6e949d5b8)" style="fill: none; stroke: #b0b0b0; stroke-width: 0.8; stroke-linecap: square"/>
     </g>
     <g id="line2d_2">
      <defs>
       <path id="m435024050d" d="M 0 0 
L 0 3.5 
" style="stroke: #000000; stroke-width: 0.8"/>
      </defs>
      <g>
       <use xlink:href="#m435024050d" x="62.062145" y="354.958125" style="stroke: #000000; stroke-width: 0.8"/>
      </g>
     </g>
     <g id="text_1">
      <!-- 2022-01 -->
      <g transform="translate(41.170739 369.555781) scale(0.1 -0.1)">
       <defs>
        <path id="DejaVuSans-15" d="M 1228 531 
L 3431 531 
L 3431 0 
L 469 0 
L 469 531 
Q 828 903 1448 1529 
Q 2069 2156 2228 2338 
Q 2531 2678 2651 2914 
Q 2772 3150 2772 3378 
Q 2772 3750 2511 3984 
Q 2250 4219 1831 4219 
Q 1534 4219 1204 4116 
Q 875 4013 500 3803 
L 500 4441 
Q 881 4594 1212 4672 
Q 1544 4750 1819 4750 
Q 2544 4750 2975 4387 
Q 3406 4025 3406 3419 
Q 3406 3131 3298 2873 
Q 3191 2616 2906 2266 
Q 2828 2175 2409 1742 
Q 1991 1309 1228 531 
z
" transform="scale(0.015625)"/>
        <path id="DejaVuSans-13" d="M 2034 4250 
Q 1547 4250 1301 3770 
Q 1056 3291 1056 2328 
Q 1056 1369 1301 889 
Q 1547 409 2034 409 
Q 2525 409 2770 889 
Q 3016 1369 3016 2328 
Q 3016 3291 2770 3770 
Q 2525 4250 2034 4250 
z
M 2034 4750 
Q 2819 4750 3233 4129 
Q 3647 3509 3647 2328 
Q 3647 1150 3233 529 
Q 2819 -91 2034 -91 
Q 1250 -91 836 529 
Q 422 1150 422 2328 
Q 422 3509 836 4129 
Q 1250 4750 2034 4750 
z
" transform="scale(0.015625)"/>
        <path id="DejaVuSans-10" d="M 313 2009 
L 1997 2009 
L 1997 1497 
L 313 1497 
L 313 2009 
z
" transform="scale(0.015625)"/>
        <path id="DejaVuSans-14" d="M 794 531 
L 1825 531 
L 1825 4091 
L 703 3866 
L 703 4441 
L 1819 4666 
L 2450 4666 
L 2450 531 
L 3481 531 
L 3481 0 
L 794 0 
L 794 531 
z
" transform="scale(0.015625)"/>
       </defs>
       <use xlink:href="#DejaVuSans-15"/>
       <use xlink:href="#DejaVuSans-13" transform="translate(63.625 0)"/>
       <use xlink:href="#DejaVuSans-15" transform="translate(127.25 0)"/>
       <use xlink:href="#DejaVuSans-15" transform="translate(190.875 0)"/>
       <use xlink:href="#DejaVuSans-10" transform="translate(254.5 0)"/>
       <use xlink:href="#DejaVuSans-13" transform="translate(290.578125 0)"/>
       <use xlink:href="#DejaVuSans-14" transform="translate(354.203125 0)"/>
      </g>
     </g>
    </g>
    <g id="xtick_2">
     <g id="line2d_3">
      <path d="M 145.198509 354.958125 
L 145.198509 22.318125 
" clip-path="url(#pc6e949d5b8)" style="fill: none; stroke: #b0b0b0; stroke-width: 0.8; stroke-linecap: square"/>
     </g>
     <g id="line2d_4">
      <g>
       <use xlink:href="#m435024050d" x="145.198509" y="354.958125" style="stroke: #000000; stroke-width: 0.8"/>
      </g>
     </g>
     <g id="text_2">
      <!-- 2022-03 -->
      <g transform="translate(124.307102 369.555781) scale(0.1 -0.1)">
       <defs>
        <path id="DejaVuSans-16" d="M 2597 2516 
Q 3050 2419 3304 2112 
Q 3559 1806 3559 1356 
Q 3559 666 3084 287 
Q 2609 -91 1734 -91 
Q 1441 -91 1130 -33 
Q 819 25 488 141 
L 488 750 
Q 750 597 1062 519 
Q 1375 441 1716 441 
Q 2309 441 2620 675 
Q 2931 909 2931 1356 
Q 2931 1769 2642 2001 
Q 2353 2234 1838 2234 
L 1294 2234 
L 1294 2753 
L 1863 2753 
Q 2328 2753 2575 2939 
Q 2822 3125 2822 3475 
Q 2822 3834 2567 4026 
Q 2313 4219 1838 4219 
Q 1578 4219 1281 4162 
Q 984 4106 628 3988 
L 628 4550 
Q 988 4650 1302 4700 
Q 1616 4750 1894 4750 
Q 2613 4750 3031 4423 
Q 3450 4097 3450 3541 
Q 3450 3153 3228 2886 
Q 3006 2619 2597 2516 
z
" transform="scale(0.015625)"/>
       </defs>
       <use xlink:href="#DejaVuSans-15"/>
       <use xlink:href="#DejaVuSans-13" transform="translate(63.625 0)"/>
       <use xlink:href="#DejaVuSans-15" transform="translate(127.25 0)"/>
       <use xlink:href="#DejaVuSans-15" transform="translate(190.875 0)"/>
       <use xlink:href="#DejaVuSans-10" transform="translate(254.5 0)"/>
       <use xlink:href="#DejaVuSans-13" transform="translate(290.578125 0)"/>
       <use xlink:href="#DejaVuSans-16" transform="translate(354.203125 0)"/>
      </g>
     </g>
    </g>
    <g id="xtick_3">
     <g id="line2d_5">
      <path d="M 231.153054 354.958125 
L 231.153054 22.318125 
" clip-path="url(#pc6e949d5b8)" style="fill: none; stroke: #b0b0b0; stroke-width: 0.8; stroke-linecap: square"/>
     </g>
     <g id="line2d_6">
      <g>
       <use xlink:href="#m435024050d" x="231.153054" y="354.958125" style="stroke: #000000; stroke-width: 0.8"/>
      </g>
     </g>
     <g id="text_3">
      <!-- 2022-05 -->
      <g transform="translate(210.261648 369.555781) scale(0.1 -0.1)">
       <defs>
        <path id="DejaVuSans-18" d="M 691 4666 
L 3169 4666 
L 3169 4134 
L 1269 4134 
L 1269 2991 
Q 1406 3038 1543 3061 
Q 1681 3084 1819 3084 
Q 2600 3084 3056 2656 
Q 3513 2228 3513 1497 
Q 3513 744 3044 326 
Q 2575 -91 1722 -91 
Q 1428 -91 1123 -41 
Q 819 9 494 109 
L 494 744 
Q 775 591 1075 516 
Q 1375 441 1709 441 
Q 2250 441 2565 725 
Q 2881 1009 2881 1497 
Q 2881 1984 2565 2268 
Q 2250 2553 1709 2553 
Q 1456 2553 1204 2497 
Q 953 2441 691 2322 
L 691 4666 
z
" transform="scale(0.015625)"/>
       </defs>
       <use xlink:href="#DejaVuSans-15"/>
       <use xlink:href="#DejaVuSans-13" transform="translate(63.625 0)"/>
       <use xlink:href="#DejaVuSans-15" transform="translate(127.25 0)"/>
       <use xlink:href="#DejaVuSans-15" transform="translate(190.875 0)"/>
       <use xlink:href="#DejaVuSans-10" transform="translate(254.5 0)"/>
       <use xlink:href="#DejaVuSans-13" transform="translate(290.578125 0)"/>
       <use xlink:href="#DejaVuSans-18" transform="translate(354.203125 0)"/>
      </g>
     </g>
    </g>
    <g id="xtick_4">
     <g id="line2d_7">
      <path d="M 317.107599 354.958125 
L 317.107599 22.318125 
" clip-path="url(#pc6e949d5b8)" style="fill: none; stroke: #b0b0b0; stroke-width: 0.8; stroke-linecap: square"/>
     </g>
     <g id="line2d_8">
      <g>
       <use xlink:href="#m435024050d" x="317.107599" y="354.958125" style="stroke: #000000; stroke-width: 0.8"/>
      </g>
     </g>
     <g id="text_4">
      <!-- 2022-07 -->
      <g transform="translate(296.216193 369.555781) scale(0.1 -0.1)">
       <defs>
        <path id="DejaVuSans-1a" d="M 525 4666 
L 3525 4666 
L 3525 4397 
L 1831 0 
L 1172 0 
L 2766 4134 
L 525 4134 
L 525 4666 
z
" transform="scale(0.015625)"/>
       </defs>
       <use xlink:href="#DejaVuSans-15"/>
       <use xlink:href="#DejaVuSans-13" transform="translate(63.625 0)"/>
       <use xlink:href="#DejaVuSans-15" transform="translate(127.25 0)"/>
       <use xlink:href="#DejaVuSans-15" transform="translate(190.875 0)"/>
       <use xlink:href="#DejaVuSans-10" transform="translate(254.5 0)"/>
       <use xlink:href="#DejaVuSans-13" transform="translate(290.578125 0)"/>
       <use xlink:href="#DejaVuSans-1a" transform="translate(354.203125 0)"/>
      </g>
     </g>
    </g>
    <g id="xtick_5">
     <g id="line2d_9">
      <path d="M 404.471236 354.958125 
L 404.471236 22.318125 
" clip-path="url(#pc6e949d5b8)" style="fill: none; stroke: #b0b0b0; stroke-width: 0.8; stroke-linecap: square"/>
     </g>
     <g id="line2d_10">
      <g>
       <use xlink:href="#m435024050d" x="404.471236" y="354.958125" style="stroke: #000000; stroke-width: 0.8"/>
      </g>
     </g>
     <g id="text_5">
      <!-- 2022-09 -->
      <g transform="translate(383.57983 369.555781) scale(0.1 -0.1)">
       <defs>
        <path id="DejaVuSans-1c" d="M 703 97 
L 703 672 
Q 941 559 1184 500 
Q 1428 441 1663 441 
Q 2288 441 2617 861 
Q 2947 1281 2994 2138 
Q 2813 1869 2534 1725 
Q 2256 1581 1919 1581 
Q 1219 1581 811 2004 
Q 403 2428 403 3163 
Q 403 3881 828 4315 
Q 1253 4750 1959 4750 
Q 2769 4750 3195 4129 
Q 3622 3509 3622 2328 
Q 3622 1225 3098 567 
Q 2575 -91 1691 -91 
Q 1453 -91 1209 -44 
Q 966 3 703 97 
z
M 1959 2075 
Q 2384 2075 2632 2365 
Q 2881 2656 2881 3163 
Q 2881 3666 2632 3958 
Q 2384 4250 1959 4250 
Q 1534 4250 1286 3958 
Q 1038 3666 1038 3163 
Q 1038 2656 1286 2365 
Q 1534 2075 1959 2075 
z
" transform="scale(0.015625)"/>
       </defs>
       <use xlink:href="#DejaVuSans-15"/>
       <use xlink:href="#DejaVuSans-13" transform="translate(63.625 0)"/>
       <use xlink:href="#DejaVuSans-15" transform="translate(127.25 0)"/>
       <use xlink:href="#DejaVuSans-15" transform="translate(190.875 0)"/>
       <use xlink:href="#DejaVuSans-10" transform="translate(254.5 0)"/>
       <use xlink:href="#DejaVuSans-13" transform="translate(290.578125 0)"/>
       <use xlink:href="#DejaVuSans-1c" transform="translate(354.203125 0)"/>
      </g>
     </g>
    </g>
    <g id="xtick_6">
     <g id="line2d_11">
      <path d="M 490.425781 354.958125 
L 490.425781 22.318125 
" clip-path="url(#pc6e949d5b8)" style="fill: none; stroke: #b0b0b0; stroke-width: 0.8; stroke-linecap: square"/>
     </g>
     <g id="line2d_12">
      <g>
       <use xlink:href="#m435024050d" x="490.425781" y="354.958125" style="stroke: #000000; stroke-width: 0.8"/>
      </g>
     </g>
     <g id="text_6">
      <!-- 2022-11 -->
      <g transform="translate(469.534375 369.555781) scale(0.1 -0.1)">
       <use xlink:href="#DejaVuSans-15"/>
       <use xlink:href="#DejaVuSans-13" transform="translate(63.625 0)"/>
       <use xlink:href="#DejaVuSans-15" transform="translate(127.25 0)"/>
       <use xlink:href="#DejaVuSans-15" transform="translate(190.875 0)"/>
       <use xlink:href="#DejaVuSans-10" transform="translate(254.5 0)"/>
       <use xlink:href="#DejaVuSans-14" transform="translate(290.578125 0)"/>
       <use xlink:href="#DejaVuSans-14" transform="translate(354.203125 0)"/>
      </g>
     </g>
    </g>
    <g id="xtick_7">
     <g id="line2d_13">
      <path d="M 576.380327 354.958125 
L 576.380327 22.318125 
" clip-path="url(#pc6e949d5b8)" style="fill: none; stroke: #b0b0b0; stroke-width: 0.8; stroke-linecap: square"/>
     </g>
     <g id="line2d_14">
      <g>
       <use xlink:href="#m435024050d" x="576.380327" y="354.958125" style="stroke: #000000; stroke-width: 0.8"/>
      </g>
     </g>
     <g id="text_7">
      <!-- 2023-01 -->
      <g transform="translate(555.48892 369.555781) scale(0.1 -0.1)">
       <use xlink:href="#DejaVuSans-15"/>
       <use xlink:href="#DejaVuSans-13" transform="translate(63.625 0)"/>
       <use xlink:href="#DejaVuSans-15" transform="translate(127.25 0)"/>
       <use xlink:href="#DejaVuSans-16" transform="translate(190.875 0)"/>
       <use xlink:href="#DejaVuSans-10" transform="translate(254.5 0)"/>
       <use xlink:href="#DejaVuSans-13" transform="translate(290.578125 0)"/>
       <use xlink:href="#DejaVuSans-14" transform="translate(354.203125 0)"/>
      </g>
     </g>
    </g>
    <g id="text_8">
     <!-- Time Step -->
     <g transform="translate(294.715625 383.556562) scale(0.1 -0.1)">
      <defs>
       <path id="DejaVuSans-37" d="M -19 4666 
L 3928 4666 
L 3928 4134 
L 2272 4134 
L 2272 0 
L 1638 0 
L 1638 4134 
L -19 4134 
L -19 4666 
z
" transform="scale(0.015625)"/>
       <path id="DejaVuSans-4c" d="M 603 3500 
L 1178 3500 
L 1178 0 
L 603 0 
L 603 3500 
z
M 603 4863 
L 1178 4863 
L 1178 4134 
L 603 4134 
L 603 4863 
z
" transform="scale(0.015625)"/>
       <path id="DejaVuSans-50" d="M 3328 2828 
Q 3544 3216 3844 3400 
Q 4144 3584 4550 3584 
Q 5097 3584 5394 3201 
Q 5691 2819 5691 2113 
L 5691 0 
L 5113 0 
L 5113 2094 
Q 5113 2597 4934 2840 
Q 4756 3084 4391 3084 
Q 3944 3084 3684 2787 
Q 3425 2491 3425 1978 
L 3425 0 
L 2847 0 
L 2847 2094 
Q 2847 2600 2669 2842 
Q 2491 3084 2119 3084 
Q 1678 3084 1418 2786 
Q 1159 2488 1159 1978 
L 1159 0 
L 581 0 
L 581 3500 
L 1159 3500 
L 1159 2956 
Q 1356 3278 1631 3431 
Q 1906 3584 2284 3584 
Q 2666 3584 2933 3390 
Q 3200 3197 3328 2828 
z
" transform="scale(0.015625)"/>
       <path id="DejaVuSans-48" d="M 3597 1894 
L 3597 1613 
L 953 1613 
Q 991 1019 1311 708 
Q 1631 397 2203 397 
Q 2534 397 2845 478 
Q 3156 559 3463 722 
L 3463 178 
Q 3153 47 2828 -22 
Q 2503 -91 2169 -91 
Q 1331 -91 842 396 
Q 353 884 353 1716 
Q 353 2575 817 3079 
Q 1281 3584 2069 3584 
Q 2775 3584 3186 3129 
Q 3597 2675 3597 1894 
z
M 3022 2063 
Q 3016 2534 2758 2815 
Q 2500 3097 2075 3097 
Q 1594 3097 1305 2825 
Q 1016 2553 972 2059 
L 3022 2063 
z
" transform="scale(0.015625)"/>
       <path id="DejaVuSans-3" transform="scale(0.015625)"/>
       <path id="DejaVuSans-36" d="M 3425 4513 
L 3425 3897 
Q 3066 4069 2747 4153 
Q 2428 4238 2131 4238 
Q 1616 4238 1336 4038 
Q 1056 3838 1056 3469 
Q 1056 3159 1242 3001 
Q 1428 2844 1947 2747 
L 2328 2669 
Q 3034 2534 3370 2195 
Q 3706 1856 3706 1288 
Q 3706 609 3251 259 
Q 2797 -91 1919 -91 
Q 1588 -91 1214 -16 
Q 841 59 441 206 
L 441 856 
Q 825 641 1194 531 
Q 1563 422 1919 422 
Q 2459 422 2753 634 
Q 3047 847 3047 1241 
Q 3047 1584 2836 1778 
Q 2625 1972 2144 2069 
L 1759 2144 
Q 1053 2284 737 2584 
Q 422 2884 422 3419 
Q 422 4038 858 4394 
Q 1294 4750 2059 4750 
Q 2388 4750 2728 4690 
Q 3069 4631 3425 4513 
z
" transform="scale(0.015625)"/>
       <path id="DejaVuSans-57" d="M 1172 4494 
L 1172 3500 
L 2356 3500 
L 2356 3053 
L 1172 3053 
L 1172 1153 
Q 1172 725 1289 603 
Q 1406 481 1766 481 
L 2356 481 
L 2356 0 
L 1766 0 
Q 1100 0 847 248 
Q 594 497 594 1153 
L 594 3053 
L 172 3053 
L 172 3500 
L 594 3500 
L 594 4494 
L 1172 4494 
z
" transform="scale(0.015625)"/>
       <path id="DejaVuSans-53" d="M 1159 525 
L 1159 -1331 
L 581 -1331 
L 581 3500 
L 1159 3500 
L 1159 2969 
Q 1341 3281 1617 3432 
Q 1894 3584 2278 3584 
Q 2916 3584 3314 3078 
Q 3713 2572 3713 1747 
Q 3713 922 3314 415 
Q 2916 -91 2278 -91 
Q 1894 -91 1617 61 
Q 1341 213 1159 525 
z
M 3116 1747 
Q 3116 2381 2855 2742 
Q 2594 3103 2138 3103 
Q 1681 3103 1420 2742 
Q 1159 2381 1159 1747 
Q 1159 1113 1420 752 
Q 1681 391 2138 391 
Q 2594 391 2855 752 
Q 3116 1113 3116 1747 
z
" transform="scale(0.015625)"/>
      </defs>
      <use xlink:href="#DejaVuSans-37"/>
      <use xlink:href="#DejaVuSans-4c" transform="translate(58 0)"/>
      <use xlink:href="#DejaVuSans-50" transform="translate(85.78125 0)"/>
      <use xlink:href="#DejaVuSans-48" transform="translate(183.1875 0)"/>
      <use xlink:href="#DejaVuSans-3" transform="translate(244.71875 0)"/>
      <use xlink:href="#DejaVuSans-36" transform="translate(276.5 0)"/>
      <use xlink:href="#DejaVuSans-57" transform="translate(339.984375 0)"/>
      <use xlink:href="#DejaVuSans-48" transform="translate(379.1875 0)"/>
      <use xlink:href="#DejaVuSans-53" transform="translate(440.71875 0)"/>
     </g>
    </g>
   </g>
   <g id="matplotlib.axis_2">
    <g id="ytick_1">
     <g id="line2d_15">
      <path d="M 40.925781 324.544085 
L 598.925781 324.544085 
" clip-path="url(#pc6e949d5b8)" style="fill: none; stroke: #b0b0b0; stroke-width: 0.8; stroke-linecap: square"/>
     </g>
     <g id="line2d_16">
      <defs>
       <path id="me7b99cdce0" d="M 0 0 
L -3.5 0 
" style="stroke: #000000; stroke-width: 0.8"/>
      </defs>
      <g>
       <use xlink:href="#me7b99cdce0" x="40.925781" y="324.544085" style="stroke: #000000; stroke-width: 0.8"/>
      </g>
     </g>
     <g id="text_9">
      <!-- 0 -->
      <g transform="translate(27.563281 328.342913) scale(0.1 -0.1)">
       <use xlink:href="#DejaVuSans-13"/>
      </g>
     </g>
    </g>
    <g id="ytick_2">
     <g id="line2d_17">
      <path d="M 40.925781 257.347071 
L 598.925781 257.347071 
" clip-path="url(#pc6e949d5b8)" style="fill: none; stroke: #b0b0b0; stroke-width: 0.8; stroke-linecap: square"/>
     </g>
     <g id="line2d_18">
      <g>
       <use xlink:href="#me7b99cdce0" x="40.925781" y="257.347071" style="stroke: #000000; stroke-width: 0.8"/>
      </g>
     </g>
     <g id="text_10">
      <!-- 10 -->
      <g transform="translate(21.200781 261.145899) scale(0.1 -0.1)">
       <use xlink:href="#DejaVuSans-14"/>
       <use xlink:href="#DejaVuSans-13" transform="translate(63.625 0)"/>
      </g>
     </g>
    </g>
    <g id="ytick_3">
     <g id="line2d_19">
      <path d="M 40.925781 190.150058 
L 598.925781 190.150058 
" clip-path="url(#pc6e949d5b8)" style="fill: none; stroke: #b0b0b0; stroke-width: 0.8; stroke-linecap: square"/>
     </g>
     <g id="line2d_20">
      <g>
       <use xlink:href="#me7b99cdce0" x="40.925781" y="190.150058" style="stroke: #000000; stroke-width: 0.8"/>
      </g>
     </g>
     <g id="text_11">
      <!-- 20 -->
      <g transform="translate(21.200781 193.948886) scale(0.1 -0.1)">
       <use xlink:href="#DejaVuSans-15"/>
       <use xlink:href="#DejaVuSans-13" transform="translate(63.625 0)"/>
      </g>
     </g>
    </g>
    <g id="ytick_4">
     <g id="line2d_21">
      <path d="M 40.925781 122.953044 
L 598.925781 122.953044 
" clip-path="url(#pc6e949d5b8)" style="fill: none; stroke: #b0b0b0; stroke-width: 0.8; stroke-linecap: square"/>
     </g>
     <g id="line2d_22">
      <g>
       <use xlink:href="#me7b99cdce0" x="40.925781" y="122.953044" style="stroke: #000000; stroke-width: 0.8"/>
      </g>
     </g>
     <g id="text_12">
      <!-- 30 -->
      <g transform="translate(21.200781 126.751872) scale(0.1 -0.1)">
       <use xlink:href="#DejaVuSans-16"/>
       <use xlink:href="#DejaVuSans-13" transform="translate(63.625 0)"/>
      </g>
     </g>
    </g>
    <g id="ytick_5">
     <g id="line2d_23">
      <path d="M 40.925781 55.756031 
L 598.925781 55.756031 
" clip-path="url(#pc6e949d5b8)" style="fill: none; stroke: #b0b0b0; stroke-width: 0.8; stroke-linecap: square"/>
     </g>
     <g id="line2d_24">
      <g>
       <use xlink:href="#me7b99cdce0" x="40.925781" y="55.756031" style="stroke: #000000; stroke-width: 0.8"/>
      </g>
     </g>
     <g id="text_13">
      <!-- 40 -->
      <g transform="translate(21.200781 59.554859) scale(0.1 -0.1)">
       <defs>
        <path id="DejaVuSans-17" d="M 2419 4116 
L 825 1625 
L 2419 1625 
L 2419 4116 
z
M 2253 4666 
L 3047 4666 
L 3047 1625 
L 3713 1625 
L 3713 1100 
L 3047 1100 
L 3047 0 
L 2419 0 
L 2419 1100 
L 313 1100 
L 313 1709 
L 2253 4666 
z
" transform="scale(0.015625)"/>
       </defs>
       <use xlink:href="#DejaVuSans-17"/>
       <use xlink:href="#DejaVuSans-13" transform="translate(63.625 0)"/>
      </g>
     </g>
    </g>
    <g id="text_14">
     <!-- Holding Period Return (%) -->
     <g transform="translate(14.798437 253.356094) rotate(-90) scale(0.1 -0.1)">
      <defs>
       <path id="DejaVuSans-2b" d="M 628 4666 
L 1259 4666 
L 1259 2753 
L 3553 2753 
L 3553 4666 
L 4184 4666 
L 4184 0 
L 3553 0 
L 3553 2222 
L 1259 2222 
L 1259 0 
L 628 0 
L 628 4666 
z
" transform="scale(0.015625)"/>
       <path id="DejaVuSans-52" d="M 1959 3097 
Q 1497 3097 1228 2736 
Q 959 2375 959 1747 
Q 959 1119 1226 758 
Q 1494 397 1959 397 
Q 2419 397 2687 759 
Q 2956 1122 2956 1747 
Q 2956 2369 2687 2733 
Q 2419 3097 1959 3097 
z
M 1959 3584 
Q 2709 3584 3137 3096 
Q 3566 2609 3566 1747 
Q 3566 888 3137 398 
Q 2709 -91 1959 -91 
Q 1206 -91 779 398 
Q 353 888 353 1747 
Q 353 2609 779 3096 
Q 1206 3584 1959 3584 
z
" transform="scale(0.015625)"/>
       <path id="DejaVuSans-4f" d="M 603 4863 
L 1178 4863 
L 1178 0 
L 603 0 
L 603 4863 
z
" transform="scale(0.015625)"/>
       <path id="DejaVuSans-47" d="M 2906 2969 
L 2906 4863 
L 3481 4863 
L 3481 0 
L 2906 0 
L 2906 525 
Q 2725 213 2448 61 
Q 2172 -91 1784 -91 
Q 1150 -91 751 415 
Q 353 922 353 1747 
Q 353 2572 751 3078 
Q 1150 3584 1784 3584 
Q 2172 3584 2448 3432 
Q 2725 3281 2906 2969 
z
M 947 1747 
Q 947 1113 1208 752 
Q 1469 391 1925 391 
Q 2381 391 2643 752 
Q 2906 1113 2906 1747 
Q 2906 2381 2643 2742 
Q 2381 3103 1925 3103 
Q 1469 3103 1208 2742 
Q 947 2381 947 1747 
z
" transform="scale(0.015625)"/>
       <path id="DejaVuSans-51" d="M 3513 2113 
L 3513 0 
L 2938 0 
L 2938 2094 
Q 2938 2591 2744 2837 
Q 2550 3084 2163 3084 
Q 1697 3084 1428 2787 
Q 1159 2491 1159 1978 
L 1159 0 
L 581 0 
L 581 3500 
L 1159 3500 
L 1159 2956 
Q 1366 3272 1645 3428 
Q 1925 3584 2291 3584 
Q 2894 3584 3203 3211 
Q 3513 2838 3513 2113 
z
" transform="scale(0.015625)"/>
       <path id="DejaVuSans-4a" d="M 2906 1791 
Q 2906 2416 2648 2759 
Q 2391 3103 1925 3103 
Q 1463 3103 1205 2759 
Q 947 2416 947 1791 
Q 947 1169 1205 825 
Q 1463 481 1925 481 
Q 2391 481 2648 825 
Q 2906 1169 2906 1791 
z
M 3481 434 
Q 3481 -459 3084 -895 
Q 2688 -1331 1869 -1331 
Q 1566 -1331 1297 -1286 
Q 1028 -1241 775 -1147 
L 775 -588 
Q 1028 -725 1275 -790 
Q 1522 -856 1778 -856 
Q 2344 -856 2625 -561 
Q 2906 -266 2906 331 
L 2906 616 
Q 2728 306 2450 153 
Q 2172 0 1784 0 
Q 1141 0 747 490 
Q 353 981 353 1791 
Q 353 2603 747 3093 
Q 1141 3584 1784 3584 
Q 2172 3584 2450 3431 
Q 2728 3278 2906 2969 
L 2906 3500 
L 3481 3500 
L 3481 434 
z
" transform="scale(0.015625)"/>
       <path id="DejaVuSans-33" d="M 1259 4147 
L 1259 2394 
L 2053 2394 
Q 2494 2394 2734 2622 
Q 2975 2850 2975 3272 
Q 2975 3691 2734 3919 
Q 2494 4147 2053 4147 
L 1259 4147 
z
M 628 4666 
L 2053 4666 
Q 2838 4666 3239 4311 
Q 3641 3956 3641 3272 
Q 3641 2581 3239 2228 
Q 2838 1875 2053 1875 
L 1259 1875 
L 1259 0 
L 628 0 
L 628 4666 
z
" transform="scale(0.015625)"/>
       <path id="DejaVuSans-55" d="M 2631 2963 
Q 2534 3019 2420 3045 
Q 2306 3072 2169 3072 
Q 1681 3072 1420 2755 
Q 1159 2438 1159 1844 
L 1159 0 
L 581 0 
L 581 3500 
L 1159 3500 
L 1159 2956 
Q 1341 3275 1631 3429 
Q 1922 3584 2338 3584 
Q 2397 3584 2469 3576 
Q 2541 3569 2628 3553 
L 2631 2963 
z
" transform="scale(0.015625)"/>
       <path id="DejaVuSans-35" d="M 2841 2188 
Q 3044 2119 3236 1894 
Q 3428 1669 3622 1275 
L 4263 0 
L 3584 0 
L 2988 1197 
Q 2756 1666 2539 1819 
Q 2322 1972 1947 1972 
L 1259 1972 
L 1259 0 
L 628 0 
L 628 4666 
L 2053 4666 
Q 2853 4666 3247 4331 
Q 3641 3997 3641 3322 
Q 3641 2881 3436 2590 
Q 3231 2300 2841 2188 
z
M 1259 4147 
L 1259 2491 
L 2053 2491 
Q 2509 2491 2742 2702 
Q 2975 2913 2975 3322 
Q 2975 3731 2742 3939 
Q 2509 4147 2053 4147 
L 1259 4147 
z
" transform="scale(0.015625)"/>
       <path id="DejaVuSans-58" d="M 544 1381 
L 544 3500 
L 1119 3500 
L 1119 1403 
Q 1119 906 1312 657 
Q 1506 409 1894 409 
Q 2359 409 2629 706 
Q 2900 1003 2900 1516 
L 2900 3500 
L 3475 3500 
L 3475 0 
L 2900 0 
L 2900 538 
Q 2691 219 2414 64 
Q 2138 -91 1772 -91 
Q 1169 -91 856 284 
Q 544 659 544 1381 
z
M 1991 3584 
L 1991 3584 
z
" transform="scale(0.015625)"/>
       <path id="DejaVuSans-b" d="M 1984 4856 
Q 1566 4138 1362 3434 
Q 1159 2731 1159 2009 
Q 1159 1288 1364 580 
Q 1569 -128 1984 -844 
L 1484 -844 
Q 1016 -109 783 600 
Q 550 1309 550 2009 
Q 550 2706 781 3412 
Q 1013 4119 1484 4856 
L 1984 4856 
z
" transform="scale(0.015625)"/>
       <path id="DejaVuSans-8" d="M 4653 2053 
Q 4381 2053 4226 1822 
Q 4072 1591 4072 1178 
Q 4072 772 4226 539 
Q 4381 306 4653 306 
Q 4919 306 5073 539 
Q 5228 772 5228 1178 
Q 5228 1588 5073 1820 
Q 4919 2053 4653 2053 
z
M 4653 2450 
Q 5147 2450 5437 2106 
Q 5728 1763 5728 1178 
Q 5728 594 5436 251 
Q 5144 -91 4653 -91 
Q 4153 -91 3862 251 
Q 3572 594 3572 1178 
Q 3572 1766 3864 2108 
Q 4156 2450 4653 2450 
z
M 1428 4353 
Q 1159 4353 1004 4120 
Q 850 3888 850 3481 
Q 850 3069 1003 2837 
Q 1156 2606 1428 2606 
Q 1700 2606 1854 2837 
Q 2009 3069 2009 3481 
Q 2009 3884 1853 4118 
Q 1697 4353 1428 4353 
z
M 4250 4750 
L 4750 4750 
L 1831 -91 
L 1331 -91 
L 4250 4750 
z
M 1428 4750 
Q 1922 4750 2215 4408 
Q 2509 4066 2509 3481 
Q 2509 2891 2217 2550 
Q 1925 2209 1428 2209 
Q 931 2209 642 2551 
Q 353 2894 353 3481 
Q 353 4063 643 4406 
Q 934 4750 1428 4750 
z
" transform="scale(0.015625)"/>
       <path id="DejaVuSans-c" d="M 513 4856 
L 1013 4856 
Q 1481 4119 1714 3412 
Q 1947 2706 1947 2009 
Q 1947 1309 1714 600 
Q 1481 -109 1013 -844 
L 513 -844 
Q 928 -128 1133 580 
Q 1338 1288 1338 2009 
Q 1338 2731 1133 3434 
Q 928 4138 513 4856 
z
" transform="scale(0.015625)"/>
      </defs>
      <use xlink:href="#DejaVuSans-2b"/>
      <use xlink:href="#DejaVuSans-52" transform="translate(75.203125 0)"/>
      <use xlink:href="#DejaVuSans-4f" transform="translate(136.390625 0)"/>
      <use xlink:href="#DejaVuSans-47" transform="translate(164.171875 0)"/>
      <use xlink:href="#DejaVuSans-4c" transform="translate(227.65625 0)"/>
      <use xlink:href="#DejaVuSans-51" transform="translate(255.4375 0)"/>
      <use xlink:href="#DejaVuSans-4a" transform="translate(318.8125 0)"/>
      <use xlink:href="#DejaVuSans-3" transform="translate(382.296875 0)"/>
      <use xlink:href="#DejaVuSans-33" transform="translate(414.078125 0)"/>
      <use xlink:href="#DejaVuSans-48" transform="translate(470.8125 0)"/>
      <use xlink:href="#DejaVuSans-55" transform="translate(532.34375 0)"/>
      <use xlink:href="#DejaVuSans-4c" transform="translate(573.453125 0)"/>
      <use xlink:href="#DejaVuSans-52" transform="translate(601.234375 0)"/>
      <use xlink:href="#DejaVuSans-47" transform="translate(662.421875 0)"/>
      <use xlink:href="#DejaVuSans-3" transform="translate(725.90625 0)"/>
      <use xlink:href="#DejaVuSans-35" transform="translate(757.6875 0)"/>
      <use xlink:href="#DejaVuSans-48" transform="translate(822.6875 0)"/>
      <use xlink:href="#DejaVuSans-57" transform="translate(884.21875 0)"/>
      <use xlink:href="#DejaVuSans-58" transform="translate(923.421875 0)"/>
      <use xlink:href="#DejaVuSans-55" transform="translate(986.796875 0)"/>
      <use xlink:href="#DejaVuSans-51" transform="translate(1026.15625 0)"/>
      <use xlink:href="#DejaVuSans-3" transform="translate(1089.53125 0)"/>
      <use xlink:href="#DejaVuSans-b" transform="translate(1121.3125 0)"/>
      <use xlink:href="#DejaVuSans-8" transform="translate(1160.328125 0)"/>
      <use xlink:href="#DejaVuSans-c" transform="translate(1255.34375 0)"/>
     </g>
    </g>
   </g>
   <g id="line2d_25">
    <path d="M 66.289418 324.073706 
L 67.698509 322.796962 
L 69.107599 322.272826 
L 70.51669 321.345507 
L 74.743963 333.172181 
L 76.153054 339.838125 
L 77.562145 336.814259 
L 78.971236 334.878985 
L 80.380327 328.911891 
L 84.607599 316.628277 
L 87.425781 309.653227 
L 88.834872 306.535285 
L 90.243963 304.196829 
L 94.471236 311.722895 
L 95.880327 311.964804 
L 98.698509 316.493883 
L 100.107599 327.191647 
L 114.198509 325.99554 
L 115.607599 327.003495 
L 117.01669 327.715784 
L 118.425781 329.328512 
L 119.834872 329.718255 
L 124.062145 319.504309 
L 125.471236 317.931899 
L 126.880327 317.21961 
L 128.289418 319.826854 
L 129.698509 317.784065 
L 133.925781 318.456035 
L 135.334872 315.821912 
L 136.743963 314.236063 
L 138.153054 314.7602 
L 139.562145 312.972759 
L 143.789418 313.765684 
L 145.198509 312.583016 
L 146.607599 316.722352 
L 148.01669 315.87567 
L 149.425781 315.687518 
L 153.653054 314.625806 
L 155.062145 315.566564 
L 156.471236 315.43217 
L 157.880327 314.222623 
L 159.289418 316.856746 
L 163.51669 321.842765 
L 164.925781 321.547098 
L 166.334872 319.24896 
L 167.743963 318.832339 
L 173.380327 315.781594 
L 174.789418 315.096185 
L 176.198509 315.472488 
L 177.607599 316.33261 
L 179.01669 316.33261 
L 183.243963 319.154884 
L 184.653054 317.609353 
L 186.062145 317.071777 
L 187.471236 316.856746 
L 188.880327 312.569577 
L 193.107599 312.112637 
L 194.51669 312.529259 
L 195.925781 310.459591 
L 197.334872 311.669137 
L 198.743963 312.462062 
L 204.380327 313.886638 
L 205.789418 312.27391 
L 207.198509 313.241547 
L 208.607599 316.507322 
L 212.834872 318.617308 
L 214.243963 315.284336 
L 215.653054 301.441752 
L 217.062145 299.103295 
L 218.471236 298.76731 
L 222.698509 318.241005 
L 224.107599 304.962875 
L 225.51669 298.001264 
L 226.925781 289.870426 
L 228.334872 294.453262 
L 235.380327 281.605193 
L 236.789418 292.262639 
L 238.198509 264.926894 
L 242.425781 245.090336 
L 243.834872 247.160004 
L 245.243963 251.890674 
L 246.653054 243.396971 
L 248.062145 250.197309 
L 252.289418 213.386785 
L 253.698509 243.249138 
L 255.107599 247.442231 
L 256.51669 252.535765 
L 257.925781 244.243654 
L 262.153054 238.773817 
L 263.562145 239.459226 
L 264.971236 274.079128 
L 266.380327 273.111491 
L 267.789418 292.679261 
L 272.01669 295.044596 
L 273.425781 288.324894 
L 274.834872 294.883323 
L 276.243963 284.548422 
L 277.653054 286.134272 
L 283.289418 281.981496 
L 284.698509 291.846018 
L 286.107599 293.230276 
L 287.51669 269.576928 
L 291.743963 229.70222 
L 293.153054 221.786412 
L 294.562145 225.401611 
L 295.971236 209.502798 
L 297.380327 203.320672 
L 301.607599 205.161871 
L 303.01669 201.425717 
L 304.425781 192.380999 
L 305.834872 198.092745 
L 307.243963 196.668168 
L 311.471236 209.489358 
L 312.880327 218.292167 
L 314.289418 217.337969 
L 315.698509 204.167355 
L 317.107599 206.814917 
L 321.334872 206.30422 
L 322.743963 201.533232 
L 324.153054 190.257573 
L 325.562145 194.759773 
L 326.971236 194.759773 
L 331.198509 178.215868 
L 332.607599 188.29542 
L 334.01669 184.182963 
L 335.425781 189.545285 
L 336.834872 183.148129 
L 341.062145 188.846436 
L 342.471236 186.158555 
L 343.880327 201.331641 
L 345.289418 212.728254 
L 346.698509 203.58946 
L 350.925781 199.1007 
L 352.334872 196.681608 
L 353.743963 199.987701 
L 355.153054 207.285296 
L 356.562145 205.645689 
L 360.789418 220.375274 
L 362.198509 222.001442 
L 363.607599 227.511597 
L 366.425781 246.071412 
L 370.653054 248.087323 
L 372.062145 256.110646 
L 373.471236 253.664675 
L 374.880327 250.533294 
L 376.289418 261.916468 
L 381.925781 279.307055 
L 383.334872 286.886878 
L 384.743963 296.025672 
L 386.153054 266.096122 
L 390.380327 255.3446 
L 391.789418 268.353942 
L 393.198509 271.068701 
L 394.607599 294.990838 
L 396.01669 281.578314 
L 400.243963 266.243956 
L 401.653054 267.211593 
L 403.062145 275.557462 
L 410.107599 267.211593 
L 411.51669 270.974626 
L 412.925781 250.022597 
L 414.334872 249.323748 
L 415.743963 257.494905 
L 419.971236 258.516299 
L 421.380327 254.645751 
L 422.789418 236.717588 
L 424.198509 243.383532 
L 425.607599 223.063155 
L 429.834872 212.190678 
L 431.243963 220.294638 
L 432.653054 207.903509 
L 434.062145 211.545587 
L 435.471236 197.662684 
L 439.698509 182.22081 
L 441.107599 179.385096 
L 442.51669 176.173079 
L 443.925781 173.350804 
L 445.334872 168.028801 
L 450.971236 142.238587 
L 452.380327 148.743258 
L 453.789418 117.375692 
L 455.198509 110.830703 
L 459.425781 117.88639 
L 460.834872 108.344414 
L 462.243963 110.602233 
L 465.062145 101.046818 
L 469.289418 103.721259 
L 470.698509 106.462897 
L 472.107599 93.063813 
L 473.51669 109.903384 
L 474.925781 55.971061 
L 479.153054 42.800447 
L 480.562145 37.438125 
L 481.971236 39.010535 
L 483.380327 98.788998 
L 484.789418 89.179825 
L 490.425781 80.175426 
L 491.834872 71.439814 
L 493.243963 65.714628 
L 494.653054 61.62905 
L 498.880327 73.1063 
L 500.289418 61.642489 
L 501.698509 65.418961 
L 503.107599 89.784598 
L 504.51669 58.779896 
L 508.743963 44.480372 
L 510.153054 48.283723 
L 511.562145 55.0975 
L 512.971236 68.200918 
L 514.380327 55.258773 
L 518.607599 43.096114 
L 520.01669 60.889883 
L 521.425781 48.713784 
L 522.834872 53.000953 
L 524.243963 84.664186 
L 528.471236 109.164217 
L 529.880327 124.646409 
L 531.289418 134.2959 
L 532.698509 132.521899 
L 534.107599 217.741152 
L 538.334872 218.130894 
L 539.743963 230.306993 
L 541.153054 221.36979 
L 542.562145 221.665457 
L 543.971236 208.037903 
L 548.198509 193.563666 
L 549.607599 203.952324 
L 551.01669 192.192847 
L 552.425781 191.332725 
L 553.834872 188.779239 
L 558.062145 168.378225 
L 559.471236 157.855173 
L 560.880327 159.387265 
L 562.289418 158.271795 
L 563.698509 149.899047 
L 567.925781 128.879821 
L 569.334872 128.516957 
L 570.743963 128.382563 
L 572.153054 123.208393 
L 573.562145 123.450302 
L 573.562145 123.450302 
" clip-path="url(#pc6e949d5b8)" style="fill: none; stroke: #000000; stroke-width: 1.5; stroke-linecap: square"/>
   </g>
   <g id="patch_3">
    <path d="M 40.925781 354.958125 
L 40.925781 22.318125 
" style="fill: none; stroke: #000000; stroke-width: 0.8; stroke-linejoin: miter; stroke-linecap: square"/>
   </g>
   <g id="patch_4">
    <path d="M 598.925781 354.958125 
L 598.925781 22.318125 
" style="fill: none; stroke: #000000; stroke-width: 0.8; stroke-linejoin: miter; stroke-linecap: square"/>
   </g>
   <g id="patch_5">
    <path d="M 40.925781 354.958125 
L 598.925781 354.958125 
" style="fill: none; stroke: #000000; stroke-width: 0.8; stroke-linejoin: miter; stroke-linecap: square"/>
   </g>
   <g id="patch_6">
    <path d="M 40.925781 22.318125 
L 598.925781 22.318125 
" style="fill: none; stroke: #000000; stroke-width: 0.8; stroke-linejoin: miter; stroke-linecap: square"/>
   </g>
   <g id="text_15">
    <!-- Holding Period Return Over Time -->
    <g transform="translate(221.624219 16.318125) scale(0.12 -0.12)">
     <defs>
      <path id="DejaVuSans-32" d="M 2522 4238 
Q 1834 4238 1429 3725 
Q 1025 3213 1025 2328 
Q 1025 1447 1429 934 
Q 1834 422 2522 422 
Q 3209 422 3611 934 
Q 4013 1447 4013 2328 
Q 4013 3213 3611 3725 
Q 3209 4238 2522 4238 
z
M 2522 4750 
Q 3503 4750 4090 4092 
Q 4678 3434 4678 2328 
Q 4678 1225 4090 567 
Q 3503 -91 2522 -91 
Q 1538 -91 948 565 
Q 359 1222 359 2328 
Q 359 3434 948 4092 
Q 1538 4750 2522 4750 
z
" transform="scale(0.015625)"/>
      <path id="DejaVuSans-59" d="M 191 3500 
L 800 3500 
L 1894 563 
L 2988 3500 
L 3597 3500 
L 2284 0 
L 1503 0 
L 191 3500 
z
" transform="scale(0.015625)"/>
     </defs>
     <use xlink:href="#DejaVuSans-2b"/>
     <use xlink:href="#DejaVuSans-52" transform="translate(75.203125 0)"/>
     <use xlink:href="#DejaVuSans-4f" transform="translate(136.390625 0)"/>
     <use xlink:href="#DejaVuSans-47" transform="translate(164.171875 0)"/>
     <use xlink:href="#DejaVuSans-4c" transform="translate(227.65625 0)"/>
     <use xlink:href="#DejaVuSans-51" transform="translate(255.4375 0)"/>
     <use xlink:href="#DejaVuSans-4a" transform="translate(318.8125 0)"/>
     <use xlink:href="#DejaVuSans-3" transform="translate(382.296875 0)"/>
     <use xlink:href="#DejaVuSans-33" transform="translate(414.078125 0)"/>
     <use xlink:href="#DejaVuSans-48" transform="translate(470.8125 0)"/>
     <use xlink:href="#DejaVuSans-55" transform="translate(532.34375 0)"/>
     <use xlink:href="#DejaVuSans-4c" transform="translate(573.453125 0)"/>
     <use xlink:href="#DejaVuSans-52" transform="translate(601.234375 0)"/>
     <use xlink:href="#DejaVuSans-47" transform="translate(662.421875 0)"/>
     <use xlink:href="#DejaVuSans-3" transform="translate(725.90625 0)"/>
     <use xlink:href="#DejaVuSans-35" transform="translate(757.6875 0)"/>
     <use xlink:href="#DejaVuSans-48" transform="translate(822.6875 0)"/>
     <use xlink:href="#DejaVuSans-57" transform="translate(884.21875 0)"/>
     <use xlink:href="#DejaVuSans-58" transform="translate(923.421875 0)"/>
     <use xlink:href="#DejaVuSans-55" transform="translate(986.796875 0)"/>
     <use xlink:href="#DejaVuSans-51" transform="translate(1026.15625 0)"/>
     <use xlink:href="#DejaVuSans-3" transform="translate(1089.53125 0)"/>
     <use xlink:href="#DejaVuSans-32" transform="translate(1121.3125 0)"/>
     <use xlink:href="#DejaVuSans-59" transform="translate(1200.03125 0)"/>
     <use xlink:href="#DejaVuSans-48" transform="translate(1259.21875 0)"/>
     <use xlink:href="#DejaVuSans-55" transform="translate(1320.75 0)"/>
     <use xlink:href="#DejaVuSans-3" transform="translate(1361.859375 0)"/>
     <use xlink:href="#DejaVuSans-37" transform="translate(1393.640625 0)"/>
     <use xlink:href="#DejaVuSans-4c" transform="translate(1451.640625 0)"/>
     <use xlink:href="#DejaVuSans-50" transform="translate(1479.421875 0)"/>
     <use xlink:href="#DejaVuSans-48" transform="translate(1576.828125 0)"/>
    </g>
   </g>
   <g id="legend_1">
    <g id="patch_7">
     <path d="M 47.925781 45.318906 
L 121.063281 45.318906 
Q 123.063281 45.318906 123.063281 43.318906 
L 123.063281 29.318125 
Q 123.063281 27.318125 121.063281 27.318125 
L 47.925781 27.318125 
Q 45.925781 27.318125 45.925781 29.318125 
L 45.925781 43.318906 
Q 45.925781 45.318906 47.925781 45.318906 
z
" style="fill: #ffffff; opacity: 0.8; stroke: #cccccc; stroke-linejoin: miter"/>
    </g>
    <g id="line2d_26">
     <path d="M 49.925781 35.416562 
L 59.925781 35.416562 
L 69.925781 35.416562 
" style="fill: none; stroke: #000000; stroke-width: 1.5; stroke-linecap: square"/>
    </g>
    <g id="text_16">
     <!-- Portfolio -->
     <g transform="translate(77.925781 38.916562) scale(0.1 -0.1)">
      <defs>
       <path id="DejaVuSans-49" d="M 2375 4863 
L 2375 4384 
L 1825 4384 
Q 1516 4384 1395 4259 
Q 1275 4134 1275 3809 
L 1275 3500 
L 2222 3500 
L 2222 3053 
L 1275 3053 
L 1275 0 
L 697 0 
L 697 3053 
L 147 3053 
L 147 3500 
L 697 3500 
L 697 3744 
Q 697 4328 969 4595 
Q 1241 4863 1831 4863 
L 2375 4863 
z
" transform="scale(0.015625)"/>
      </defs>
      <use xlink:href="#DejaVuSans-33"/>
      <use xlink:href="#DejaVuSans-52" transform="translate(56.734375 0)"/>
      <use xlink:href="#DejaVuSans-55" transform="translate(117.921875 0)"/>
      <use xlink:href="#DejaVuSans-57" transform="translate(159.03125 0)"/>
      <use xlink:href="#DejaVuSans-49" transform="translate(198.234375 0)"/>
      <use xlink:href="#DejaVuSans-52" transform="translate(233.4375 0)"/>
      <use xlink:href="#DejaVuSans-4f" transform="translate(294.625 0)"/>
      <use xlink:href="#DejaVuSans-4c" transform="translate(322.40625 0)"/>
      <use xlink:href="#DejaVuSans-52" transform="translate(350.1875 0)"/>
     </g>
    </g>
   </g>
  </g>
 </g>
 <defs>
  <clipPath id="pc6e949d5b8">
   <rect x="40.925781" y="22.318125" width="558" height="332.64"/>
  </clipPath>
 </defs>
</svg>
